<?xml version="1.0" encoding="UTF-8"?>
<svg version="1.1" xmlns="http://www.w3.org/2000/svg" width="500" height="500">
<path d="M0 0 C1.94134663 0.98162076 3.78445866 2.04306504 5.640625 3.17578125 C6.96878354 3.85269861 8.30087671 4.52210186 9.640625 5.17578125 C10.32125 4.55703125 11.001875 3.93828125 11.703125 3.30078125 C16.88871433 -0.45049614 22.32435518 -1.47762597 28.640625 -0.82421875 C35.85459874 1.36484914 39.82941643 4.55379421 43.73828125 10.98046875 C46.05367936 16.61360182 45.71783506 23.59319561 43.40234375 29.14453125 C41.20686613 32.84905924 38.92740145 36.34825302 35.640625 39.17578125 C34.980625 39.17578125 34.320625 39.17578125 33.640625 39.17578125 C33.37765625 39.77648437 33.1146875 40.3771875 32.84375 40.99609375 C31.56668124 43.30974429 30.43593957 44.40563692 28.390625 46.05078125 C21.73647624 51.6575177 15.74927919 57.98991092 9.640625 64.17578125 C6.61085071 62.82346938 4.55589887 61.32097582 2.25 58.9453125 C1.62689941 58.31061035 1.00379883 57.6759082 0.36181641 57.02197266 C-0.28867676 56.35085449 -0.93916992 55.67973633 -1.609375 54.98828125 C-7.50105585 48.96460598 -7.50105585 48.96460598 -13.734375 43.30078125 C-28.17852387 30.91105181 -28.17852387 30.91105181 -29.359375 22.17578125 C-29.70298068 15.47547056 -27.70260454 10.26134849 -23.359375 5.17578125 C-16.7238765 -0.68848607 -8.58757756 -2.99996501 0 0 Z " fill="#FC3231" transform="translate(242.359375,164.82421875)"/>
<path d="M0 0 C4.12045721 3.33377446 7.96291573 6.83619601 11.67578125 10.6171875 C12.04703125 9.72 12.04703125 9.72 12.42578125 8.8046875 C13.89543129 6.23279993 15.10668284 5.08524373 17.67578125 3.6171875 C20.42578125 3.4296875 20.42578125 3.4296875 22.67578125 3.6171875 C22.75828125 2.5446875 22.84078125 1.4721875 22.92578125 0.3671875 C23.7469882 -3.73884725 24.29493499 -5.00708269 27.67578125 -7.3828125 C31.42083897 -8.60402697 33.15331625 -8.57745633 36.86328125 -7.1953125 C39.74699047 -5.33692211 40.95669623 -4.30429126 42.67578125 -1.3828125 C43.17697586 1.20916437 43.51330163 3.62556403 43.73828125 6.2421875 C43.85115479 7.41322021 43.85115479 7.41322021 43.96630859 8.60791016 C44.12878304 10.3401892 44.2840058 12.07315918 44.43310547 13.80664062 C44.68638361 16.73997859 44.9647522 19.67041868 45.2421875 22.6015625 C50.4616214 80.44991486 50.4616214 80.44991486 34.60546875 100.1953125 C30.94194711 104.3566646 27.04974825 108.2192217 23.05078125 112.0546875 C15.68788394 119.35333615 11.07269615 127.89061752 7.67578125 137.6171875 C6.02578125 137.6171875 4.37578125 137.6171875 2.67578125 137.6171875 C1.01179817 131.53051254 3.04604158 127.15348153 5.67578125 121.6171875 C9.44270529 115.44912475 14.73753421 110.40602053 19.67578125 105.1796875 C37.70536773 86.04156981 39.47138972 68.45246945 38.7623291 42.9552002 C38.48467945 35.4547436 37.90060708 27.97254149 37.30078125 20.4921875 C37.23765747 19.6770166 37.17453369 18.8618457 37.10949707 18.02197266 C36.92607624 15.69590048 36.7295537 13.37138174 36.52734375 11.046875 C36.47202484 10.3533493 36.41670593 9.65982361 36.35971069 8.94528198 C36.03313948 5.42998754 35.54216865 2.64441204 33.67578125 -0.3828125 C32.68578125 -0.0528125 31.69578125 0.2771875 30.67578125 0.6171875 C30.65596191 1.93436768 30.63614258 3.25154785 30.61572266 4.60864258 C30.53972284 9.48969838 30.45099677 14.37045388 30.35839844 19.2512207 C30.32008544 21.36476722 30.28523668 23.47837946 30.25390625 25.59204102 C30.20830621 28.6280061 30.15030342 31.66351778 30.08984375 34.69921875 C30.07829254 35.64618118 30.06674133 36.59314362 30.05484009 37.56880188 C30.0349704 38.44948837 30.01510071 39.33017487 29.99462891 40.23754883 C29.98130524 41.01254227 29.96798157 41.78753571 29.95425415 42.58601379 C29.67578125 44.6171875 29.67578125 44.6171875 27.67578125 47.6171875 C26.02578125 47.2871875 24.37578125 46.9571875 22.67578125 46.6171875 C22.67578125 34.7371875 22.67578125 22.8571875 22.67578125 10.6171875 C21.35578125 10.9471875 20.03578125 11.2771875 18.67578125 11.6171875 C19.00578125 22.5071875 19.33578125 33.3971875 19.67578125 44.6171875 C17.69578125 45.6071875 17.69578125 45.6071875 15.67578125 46.6171875 C15.01578125 46.2871875 14.35578125 45.9571875 13.67578125 45.6171875 C11.83185891 38.07076459 11.36132248 30.35636714 11.67578125 22.6171875 C10.35578125 22.9471875 9.03578125 23.2771875 7.67578125 23.6171875 C8.00578125 32.1971875 8.33578125 40.7771875 8.67578125 49.6171875 C7.02578125 49.9471875 5.37578125 50.2771875 3.67578125 50.6171875 C0.80101745 44.10105623 0.40542316 37.5804111 0.23828125 30.5546875 C0.19251953 29.76513672 0.14675781 28.97558594 0.09960938 28.16210938 C-0.00943287 22.50613544 -0.00943287 22.50613544 1.93701172 19.98095703 C4.37004014 17.88507576 6.63470469 16.63087969 9.67578125 15.6171875 C10.40901921 13.60210392 10.40901921 13.60210392 10.67578125 11.6171875 C8.36578125 12.6071875 6.05578125 13.5971875 3.67578125 14.6171875 C3.29808594 14.19308594 2.92039062 13.76898438 2.53125 13.33203125 C-7.92637495 2.1886604 -22.49602394 -4.56845597 -37.78515625 -5.62109375 C-55.50388019 -5.95707754 -70.81045059 -1.13505835 -84.32421875 10.6171875 C-85.67029928 11.93765058 -87.00722528 13.26771213 -88.32421875 14.6171875 C-91.23939167 13.54317642 -93.10232051 12.83908574 -95.32421875 10.6171875 C-87.9301401 0.68799617 -76.84758259 -6.13648623 -65.32421875 -10.3828125 C-64.04804688 -10.86041016 -64.04804688 -10.86041016 -62.74609375 -11.34765625 C-41.63361322 -17.89252521 -17.55068715 -13.11092428 0 0 Z " fill="#FDFDFD" transform="translate(292.32421875,137.3828125)"/>
<path d="M0 0 C3.02066848 2.88933506 4.85385488 4.65546487 5.3125 8.875 C5.209375 9.57625 5.10625 10.2775 5 11 C6.5778125 11.061875 6.5778125 11.061875 8.1875 11.125 C13.0408551 12.23888478 14.31240325 13.88955791 17 18 C17.144375 18.886875 17.28875 19.77375 17.4375 20.6875 C17.623125 21.450625 17.80875 22.21375 18 23 C20.86656967 24.68331939 20.86656967 24.68331939 24 26 C25.8125 27.1875 25.8125 27.1875 27 29 C28.06839671 34.99894798 27.89313835 40.292091 27.125 46.3125 C26.98771484 47.50842773 26.98771484 47.50842773 26.84765625 48.72851562 C26.46278769 51.95111223 26.02887886 54.91336342 25 58 C23.33388095 58.042721 21.66617115 58.04063832 20 58 C19 57 19 57 18.875 53.4375 C18.94470422 46.28120025 19.5095855 39.13728246 20 32 C18.68 31.34 17.36 30.68 16 30 C16.01160156 30.75023437 16.02320313 31.50046875 16.03515625 32.2734375 C16.08031074 37.39524724 16.07144869 42.51172322 15.75 47.625 C15.70359375 48.42164063 15.6571875 49.21828125 15.609375 50.0390625 C15 52 15 52 12.953125 53.2734375 C12.30859375 53.51320312 11.6640625 53.75296875 11 54 C10.01 53.34 9.02 52.68 8 52 C7.7512207 50.03564453 7.7512207 50.03564453 7.92578125 47.6328125 C7.98064697 46.75197998 8.0355127 45.87114746 8.09204102 44.96362305 C8.16479248 44.02687744 8.23754395 43.09013184 8.3125 42.125 C8.43444341 40.21758426 8.55424547 38.31003038 8.671875 36.40234375 C8.73181641 35.47663574 8.79175781 34.55092773 8.85351562 33.59716797 C9.12798565 28.73081436 9.09079004 23.87239865 9 19 C8.01 18.67 7.02 18.34 6 18 C5.67 29.88 5.34 41.76 5 54 C2.525 54.495 2.525 54.495 0 55 C-4.66013846 50.33986154 -2.40362226 31.98820503 -2.5625 25.375 C-2.60578206 23.68618923 -2.64939911 21.997387 -2.69335938 20.30859375 C-2.79943596 16.20581756 -2.9009764 12.10295223 -3 8 C-4.32 8 -5.64 8 -7 8 C-13.63977529 49.38558145 -13.63977529 49.38558145 -8 90 C-7.70609375 90.8353125 -7.4121875 91.670625 -7.109375 92.53125 C-3.6334159 100.72828788 2.89083372 106.71497286 9 113 C17.53661131 121.85229494 26 131.09449058 26 144 C25 145 25 145 22.4375 145.0625 C21.633125 145.041875 20.82875 145.02125 20 145 C19.69449219 144.05640625 19.38898438 143.1128125 19.07421875 142.140625 C15.54253243 131.97538319 10.70616376 125.40977284 3 118 C-10.51944979 104.92805813 -18.51029295 90.41636073 -19.30078125 71.265625 C-19.31992173 69.593855 -19.3229224 67.92184708 -19.3125 66.25 C-19.30839111 64.84391479 -19.30839111 64.84391479 -19.30419922 63.40942383 C-19.16464325 53.14564349 -18.398221 42.91912808 -17.625 32.6875 C-17.53045029 31.4119928 -17.53045029 31.4119928 -17.43399048 30.11071777 C-15.59300529 5.67469787 -15.59300529 5.67469787 -11.5625 1.4375 C-7.28225306 -0.96361414 -4.7141355 -1.41424065 0 0 Z " fill="#FDFDFD" transform="translate(179,130)"/>
<path d="M0 0 C3.08286269 2.1736951 5.50327183 4.71718181 7.984375 7.52734375 C8.46769287 8.06335205 8.95101074 8.59936035 9.44897461 9.15161133 C12.07206881 12.07010494 14.6325588 15.0356553 17.171875 18.02734375 C21.84041356 23.41584971 27.20994734 28.51672391 33.1015625 32.54296875 C41.17153787 39.93416114 42.22616836 50.19611558 43.97729492 60.47949219 C44.42363113 63.10015487 44.892293 65.71605135 45.36523438 68.33203125 C45.66274711 70.00628191 45.95901538 71.6807543 46.25390625 73.35546875 C46.46005302 74.52121429 46.46005302 74.52121429 46.67036438 75.71051025 C47.3034748 79.4444401 47.88399119 83.04895619 47.609375 86.83984375 C46.609375 87.83984375 46.609375 87.83984375 44.046875 87.90234375 C43.2425 87.88171875 42.438125 87.86109375 41.609375 87.83984375 C38.67852131 78.13178282 37.10505692 68.32642618 35.59179688 58.31445312 C34.14732668 49.37182694 32.69920038 41.78385552 25.359375 35.77734375 C24.56660156 35.10832031 23.77382812 34.43929687 22.95703125 33.75 C21.52949649 32.58849501 20.10026153 31.42907011 18.66796875 30.2734375 C13.48782865 25.95845649 9.21678559 21.06404595 4.90893555 15.90185547 C1.95834127 12.36860349 -0.96882681 8.92766506 -4.390625 5.83984375 C-6.66585589 5.88482217 -6.66585589 5.88482217 -8.390625 6.83984375 C-7.87650351 12.26761812 -5.91368645 15.99376999 -3.203125 20.58984375 C-2.79964844 21.29141602 -2.39617187 21.99298828 -1.98046875 22.71582031 C0.76539749 27.47080364 3.59078312 32.17696998 6.515625 36.82421875 C7.62225228 38.86357473 8.26272538 40.54810461 8.609375 42.83984375 C8.279375 43.49984375 7.949375 44.15984375 7.609375 44.83984375 C5.3359375 45.171875 5.3359375 45.171875 2.609375 44.83984375 C0.7578125 42.6640625 0.7578125 42.6640625 -1.015625 39.52734375 C-1.34046875 38.95991455 -1.6653125 38.39248535 -2 37.80786133 C-2.72802384 36.53567337 -3.44929996 35.25960847 -4.16503906 33.98046875 C-5.51082881 31.62989415 -6.92525817 29.32989783 -8.3515625 27.02734375 C-9.36524562 25.36107981 -10.37827044 23.6944152 -11.390625 22.02734375 C-12.13046631 20.84628052 -12.13046631 20.84628052 -12.88525391 19.64135742 C-15.99869893 14.40621029 -17.1102069 10.93978577 -16.390625 4.83984375 C-12.65134736 -1.22036484 -6.67570728 -3.23968147 0 0 Z " fill="#FDFDFD" transform="translate(193.390625,187.16015625)"/>
<path d="M0 0 C2.87029869 1.79393668 4.49131638 2.98263276 6 6 C6.78645875 13.28893208 4.59674678 17.60838646 0.9375 23.8125 C0.43524902 24.68817627 -0.06700195 25.56385254 -0.58447266 26.46606445 C-2.03966469 28.98754086 -3.51883286 31.49372983 -5 34 C-5.7055596 35.23633354 -6.41014562 36.47322377 -7.11328125 37.7109375 C-11.31097989 44.80327976 -11.31097989 44.80327976 -14.6953125 45.76953125 C-15.45585937 45.84558594 -16.21640625 45.92164063 -17 46 C-17.92709508 42.96124526 -18.1761526 41.44230678 -16.98364258 38.44799805 C-16.45923584 37.56152588 -15.9348291 36.67505371 -15.39453125 35.76171875 C-14.82283203 34.77623047 -14.25113281 33.79074219 -13.66210938 32.77539062 C-13.05173828 31.75638672 -12.44136719 30.73738281 -11.8125 29.6875 C-10.62977965 27.67158734 -9.44875581 25.65467829 -8.26953125 23.63671875 C-7.7070166 22.67942871 -7.14450195 21.72213867 -6.56494141 20.73583984 C-4.55533517 17.2226343 -2.75545612 13.64594733 -1 10 C-1.99 9.01 -2.98 8.02 -4 7 C-7.86658194 9.09609442 -10.49465259 11.3756204 -13.375 14.6875 C-14.15746094 15.57695312 -14.93992187 16.46640625 -15.74609375 17.3828125 C-17.09976458 18.95466597 -18.4479682 20.53128833 -19.78515625 22.1171875 C-25.08190435 28.35307533 -30.97345156 34.09126948 -37.6171875 38.890625 C-42.82606915 43.50176613 -43.7881029 49.7313374 -45.0078125 56.265625 C-45.17876434 57.14023376 -45.34971619 58.01484253 -45.52584839 58.91595459 C-46.06717326 61.69244233 -46.59665583 64.47101564 -47.125 67.25 C-47.6625249 70.04282375 -48.20253059 72.83513634 -48.74557495 75.62689209 C-49.08203173 77.36011057 -49.41492889 79.09402458 -49.743927 80.82867432 C-50.88933798 86.77867596 -50.88933798 86.77867596 -52 89 C-53.65 89 -55.3 89 -57 89 C-58.38260462 84.31634694 -57.58318135 80.1717665 -56.70703125 75.48046875 C-56.55973068 74.66306717 -56.41243011 73.84566559 -56.26066589 73.00349426 C-55.94659873 71.27710749 -55.6277505 69.55158455 -55.30444336 67.8269043 C-54.81659804 65.20948705 -54.35173701 62.58869682 -53.88867188 59.96679688 C-53.57951578 58.28359812 -53.2690116 56.60064631 -52.95703125 54.91796875 C-52.82142288 54.14374069 -52.68581451 53.36951263 -52.5460968 52.57182312 C-51.17151031 45.42322834 -48.63888302 39.00349541 -43.25 33.9375 C-42.55519531 33.2775 -41.86039062 32.6175 -41.14453125 31.9375 C-38.4369204 29.49127964 -35.69262063 27.0910547 -32.93359375 24.703125 C-28.12334931 20.46622283 -23.93910455 15.99773431 -20 10.9375 C-9.58653951 -2.15427854 -9.58653951 -2.15427854 0 0 Z " fill="#FDFDFD" transform="translate(316,186)"/>
<path d="M0 0 C8 0 8 0 10.1015625 2.01953125 C10.60429688 2.94121094 11.10703125 3.86289062 11.625 4.8125 C12.18574219 5.80507813 12.74648437 6.79765625 13.32421875 7.8203125 C13.87722656 8.86960937 14.43023437 9.91890625 15 11 C15.87591797 12.57394531 15.87591797 12.57394531 16.76953125 14.1796875 C18.2075206 16.77278304 19.61549929 19.37807009 21 22 C21.50789063 21.16597656 22.01578125 20.33195312 22.5390625 19.47265625 C23.96619782 17.13953053 25.40141504 14.81332709 26.84765625 12.4921875 C28.15449621 10.3918476 29.40267064 8.28780662 30.62109375 6.1328125 C31.95756078 3.86552696 33.16008534 1.8825931 35 0 C38.8125 -0.625 38.8125 -0.625 42 0 C43 1 43 1 43.11352539 4.51000977 C43.11336626 6.07048422 43.10767142 7.63096393 43.09765625 9.19140625 C43.0962413 10.01124496 43.09482635 10.83108368 43.09336853 11.67576599 C43.08775289 14.30471382 43.07519779 16.93357773 43.0625 19.5625 C43.05748701 21.34049357 43.05292376 23.11848846 43.04882812 24.89648438 C43.03777839 29.26435545 43.02050331 33.63216348 43 38 C40.03 38 37.06 38 34 38 C33.67 31.73 33.34 25.46 33 19 C30.24486274 23.88123237 30.24486274 23.88123237 27.52661133 28.78295898 C27.1736499 29.38954346 26.82068848 29.99612793 26.45703125 30.62109375 C26.10616455 31.2442749 25.75529785 31.86745605 25.39379883 32.50952148 C24 34 24 34 19 35 C16.03 30.38 13.06 25.76 10 21 C9.67 26.61 9.34 32.22 9 38 C6.03 38 3.06 38 0 38 C0 25.46 0 12.92 0 0 Z " fill="#FDFDFD" transform="translate(93,298)"/>
<path d="M0 0 C0.72703125 0.70511719 1.4540625 1.41023438 2.203125 2.13671875 C2.203125 2.79671875 2.203125 3.45671875 2.203125 4.13671875 C3.688125 4.63171875 3.688125 4.63171875 5.203125 5.13671875 C2.98122676 7.35861699 1.11829792 8.06270767 -1.796875 9.13671875 C-2.54517578 8.4096875 -2.54517578 8.4096875 -3.30859375 7.66796875 C-19.47458259 -7.42415727 -39.62998491 -15.78302003 -61.8515625 -15.203125 C-81.2695167 -13.53048934 -96.80027648 -6.08103074 -111.796875 6.13671875 C-114.296875 8.13671875 -114.296875 8.13671875 -116.796875 10.13671875 C-118.446875 9.14671875 -120.096875 8.15671875 -121.796875 7.13671875 C-116.93005001 -4.41873738 -101.59229657 -11.92100514 -90.734375 -16.67578125 C-58.55259156 -29.28526632 -25.98212641 -21.75170326 0 0 Z " fill="#FDFDFD" transform="translate(308.796875,129.86328125)"/>
<path d="M0 0 C3.42375 -0.0825 6.8475 -0.165 10.375 -0.25 C11.96127197 -0.30462402 11.96127197 -0.30462402 13.57958984 -0.36035156 C20.82641681 -0.44372571 27.85764113 0.63853754 33.65380859 5.34204102 C37.32138101 9.34816881 38.95456364 13.80241607 39.03125 19.19921875 C38.65416999 24.75172195 37.26841904 28.49488186 34 33 C29.02432167 36.85868932 25.45905911 38.1292338 19.23828125 38.09765625 C17.72681519 38.09390991 17.72681519 38.09390991 16.18481445 38.09008789 C14.2680188 38.07643188 14.2680188 38.07643188 12.3125 38.0625 C6.2178125 38.0315625 6.2178125 38.0315625 0 38 C0 25.46 0 12.92 0 0 Z M10 8 C10 15.26 10 22.52 10 30 C12.8153125 30.0928125 12.8153125 30.0928125 15.6875 30.1875 C17.27111328 30.23970703 17.27111328 30.23970703 18.88671875 30.29296875 C22.38920905 29.9633743 24.1823054 29.05792338 27 27 C29.57073939 23.57234748 29.43037452 20.16028704 29 16 C27.32415341 12.71037521 25.98464506 10.63712327 22.875 8.625 C18.86173116 7.64595059 18.86173116 7.64595059 10 8 Z " fill="#FDFDFD" transform="translate(197,298)"/>
<path d="M0 0 C0.88236328 -0.020625 1.76472656 -0.04125 2.67382812 -0.0625 C9.57508643 -0.10330567 15.48109973 0.67262541 20.875 5.375 C23.00684809 9.29760049 23.64961723 12.79553813 23.4375 17.25 C22.05510462 20.98246753 20.46366077 23.65614791 17.4375 26.25 C18.81376099 30.26409454 20.78054697 32.97309126 23.4375 36.25 C23.4375 36.91 23.4375 37.57 23.4375 38.25 C19.98409024 38.74139427 16.87233292 38.93492204 13.4375 38.25 C10.76216667 35.96133594 8.99312726 33.39919665 7.4375 30.25 C7.4375 29.59 7.4375 28.93 7.4375 28.25 C4.7975 28.25 2.1575 28.25 -0.5625 28.25 C-0.5625 31.55 -0.5625 34.85 -0.5625 38.25 C-3.8625 38.25 -7.1625 38.25 -10.5625 38.25 C-10.58714928 32.99894558 -10.60533568 27.74792455 -10.61743164 22.49682617 C-10.62247218 20.70905979 -10.62930454 18.92129755 -10.63793945 17.13354492 C-10.6500173 14.56948832 -10.65573094 12.00548603 -10.66015625 9.44140625 C-10.66531754 8.6372377 -10.67047882 7.83306915 -10.67579651 7.00453186 C-10.67599215 5.08598285 -10.62451983 3.16754632 -10.5625 1.25 C-8.29682531 -1.01567469 -3.03848303 0.0172274 0 0 Z M-0.5625 8.25 C-0.5625 12.21 -0.5625 16.17 -0.5625 20.25 C1.190625 20.311875 2.94375 20.37375 4.75 20.4375 C5.73613281 20.47230469 6.72226562 20.50710938 7.73828125 20.54296875 C10.44480322 20.47528879 10.44480322 20.47528879 12.26171875 18.92578125 C14.12836277 16.26534841 13.96142012 14.39352069 13.4375 11.25 C10.39451645 8.30517721 7.6879502 8.08172532 3.625 8.0625 C2.243125 8.124375 0.86125 8.18625 -0.5625 8.25 Z " fill="#FDFDFD" transform="translate(357.5625,297.75)"/>
<path d="M0 0 C1.20970459 0.00523682 2.41940918 0.01047363 3.66577148 0.01586914 C4.97094727 0.0190918 6.27612305 0.02231445 7.62084961 0.02563477 C9.00952213 0.03399138 10.39819401 0.04245634 11.78686523 0.05102539 C13.17944179 0.05603873 14.57202005 0.06060193 15.96459961 0.06469727 C19.38456394 0.07653105 22.80444367 0.09301659 26.22436523 0.11352539 C26.22436523 2.75352539 26.22436523 5.39352539 26.22436523 8.11352539 C19.62436523 8.11352539 13.02436523 8.11352539 6.22436523 8.11352539 C6.22436523 10.42352539 6.22436523 12.73352539 6.22436523 15.11352539 C11.83436523 15.11352539 17.44436523 15.11352539 23.22436523 15.11352539 C23.22436523 17.75352539 23.22436523 20.39352539 23.22436523 23.11352539 C17.61436523 23.11352539 12.00436523 23.11352539 6.22436523 23.11352539 C6.22436523 25.75352539 6.22436523 28.39352539 6.22436523 31.11352539 C12.82436523 31.11352539 19.42436523 31.11352539 26.22436523 31.11352539 C26.22436523 33.42352539 26.22436523 35.73352539 26.22436523 38.11352539 C16.32436523 38.11352539 6.42436523 38.11352539 -3.77563477 38.11352539 C-3.79854316 32.86241343 -3.81847039 27.61147361 -3.83056641 22.36035156 C-3.83560695 20.57258518 -3.84243931 18.78482295 -3.85107422 16.99707031 C-3.86315207 14.43301371 -3.86886571 11.86901142 -3.87329102 9.30493164 C-3.8784523 8.50076309 -3.88361359 7.69659454 -3.88893127 6.86805725 C-3.88912692 4.94950824 -3.83765459 3.03107171 -3.77563477 1.11352539 C-2.77563477 0.11352539 -2.77563477 0.11352539 0 0 Z " fill="#FDFDFD" transform="translate(398.775634765625,297.886474609375)"/>
<path d="M0 0 C1.20970459 0.00523682 2.41940918 0.01047363 3.66577148 0.01586914 C4.97094727 0.0190918 6.27612305 0.02231445 7.62084961 0.02563477 C9.00952213 0.03399138 10.39819401 0.04245634 11.78686523 0.05102539 C13.17944179 0.05603873 14.57202005 0.06060193 15.96459961 0.06469727 C19.38456394 0.07653105 22.80444367 0.09301659 26.22436523 0.11352539 C26.22436523 2.75352539 26.22436523 5.39352539 26.22436523 8.11352539 C19.62436523 8.11352539 13.02436523 8.11352539 6.22436523 8.11352539 C6.22436523 10.42352539 6.22436523 12.73352539 6.22436523 15.11352539 C11.83436523 15.11352539 17.44436523 15.11352539 23.22436523 15.11352539 C23.22436523 17.75352539 23.22436523 20.39352539 23.22436523 23.11352539 C17.61436523 23.11352539 12.00436523 23.11352539 6.22436523 23.11352539 C6.22436523 25.75352539 6.22436523 28.39352539 6.22436523 31.11352539 C12.82436523 31.11352539 19.42436523 31.11352539 26.22436523 31.11352539 C26.22436523 33.42352539 26.22436523 35.73352539 26.22436523 38.11352539 C16.32436523 38.11352539 6.42436523 38.11352539 -3.77563477 38.11352539 C-3.79854316 32.86241343 -3.81847039 27.61147361 -3.83056641 22.36035156 C-3.83560695 20.57258518 -3.84243931 18.78482295 -3.85107422 16.99707031 C-3.86315207 14.43301371 -3.86886571 11.86901142 -3.87329102 9.30493164 C-3.8784523 8.50076309 -3.88361359 7.69659454 -3.88893127 6.86805725 C-3.88912692 4.94950824 -3.83765459 3.03107171 -3.77563477 1.11352539 C-2.77563477 0.11352539 -2.77563477 0.11352539 0 0 Z " fill="#FDFDFD" transform="translate(155.775634765625,297.886474609375)"/>
<path d="M0 0 C1.23556641 0.01740234 1.23556641 0.01740234 2.49609375 0.03515625 C3.32238281 0.04417969 4.14867187 0.05320312 5 0.0625 C5.63808594 0.07410156 6.27617187 0.08570313 6.93359375 0.09765625 C11.13560419 9.03040693 15.27426051 17.99119343 19.37109375 26.97265625 C19.8201709 27.95379395 20.26924805 28.93493164 20.73193359 29.94580078 C21.14781738 30.85958496 21.56370117 31.77336914 21.9921875 32.71484375 C22.36657959 33.53581543 22.74097168 34.35678711 23.12670898 35.20263672 C23.93359375 37.09765625 23.93359375 37.09765625 23.93359375 38.09765625 C20.55469702 38.38292896 17.30244284 38.54249623 13.93359375 38.09765625 C11.33280823 35.26738966 10.93359375 33.92020482 10.93359375 30.09765625 C5.32359375 30.09765625 -0.28640625 30.09765625 -6.06640625 30.09765625 C-6.72640625 32.40765625 -7.38640625 34.71765625 -8.06640625 37.09765625 C-9.06640625 38.09765625 -9.06640625 38.09765625 -11.3515625 38.1953125 C-12.72634766 38.17791016 -12.72634766 38.17791016 -14.12890625 38.16015625 C-15.04800781 38.15113281 -15.96710938 38.14210938 -16.9140625 38.1328125 C-17.62433594 38.12121094 -18.33460938 38.10960937 -19.06640625 38.09765625 C-15.27562891 28.68775238 -11.34776871 19.35261272 -7.19140625 10.09765625 C-6.79832275 9.21948242 -6.40523926 8.34130859 -6.00024414 7.43652344 C-5.63278076 6.62344727 -5.26531738 5.81037109 -4.88671875 4.97265625 C-4.55945801 4.24820312 -4.23219727 3.52375 -3.89501953 2.77734375 C-2.5851869 0.12217329 -2.5851869 0.12217329 0 0 Z M1.93359375 11.09765625 C-0.54140625 17.03765625 -0.54140625 17.03765625 -3.06640625 23.09765625 C0.23359375 23.09765625 3.53359375 23.09765625 6.93359375 23.09765625 C6.26860992 18.708763 4.74601698 15.11650775 2.93359375 11.09765625 C2.60359375 11.09765625 2.27359375 11.09765625 1.93359375 11.09765625 Z " fill="#FDFDFD" transform="translate(312.06640625,297.90234375)"/>
<path d="M0 0 C3.84407216 2.73131443 3.84407216 2.73131443 5.375 4.6875 C5.375 5.3475 5.375 6.0075 5.375 6.6875 C3.74873596 8.06982443 2.0824998 9.40687515 0.375 10.6875 C-1.625 9.6875 -3.625 8.6875 -5.625 7.6875 C-10.87268331 7.34338962 -14.44189172 7.1195547 -18.625 10.6875 C-21.38766672 15.0826516 -20.49251423 18.79787436 -19.625 23.6875 C-19.295 24.6775 -18.965 25.6675 -18.625 26.6875 C-14.56622266 28.48091325 -11.0383907 29.15700965 -6.625 28.6875 C-4.95483484 27.69335407 -3.28779327 26.6939275 -1.625 25.6875 C1.09663054 25.84759591 2.09223545 26.43503165 4.125 28.25 C4.5375 28.724375 4.95 29.19875 5.375 29.6875 C3.63794968 33.8011117 1.76106601 35.10980548 -2.22265625 36.91796875 C-8.79396748 39.02292535 -14.83192592 38.39791589 -21.0625 35.5625 C-26.39161271 32.58496401 -28.68707722 29.50126833 -30.625 23.6875 C-31.34471504 16.74739064 -31.34162154 11.07051125 -27.125 5.30859375 C-20.11983767 -2.2620895 -9.43669388 -3.41673399 0 0 Z " fill="#FDFDFD" transform="translate(278.625,299.3125)"/>
<path d="M0 0 C0.66 0.33 1.32 0.66 2 1 C-0.31537955 4.72114571 -2.28579473 7.61229661 -6 10 C-6 9.34 -6 8.68 -6 8 C-6.66 7.67 -7.32 7.34 -8 7 C-3.375 1.125 -3.375 1.125 0 0 Z " fill="#F23936" transform="translate(283,194)"/>
<path d="M0 0 C2.4375 0.375 2.4375 0.375 5 1 C5.33 1.66 5.66 2.32 6 3 C6.99 3.33 7.98 3.66 9 4 C9.34342449 5.33076989 9.67619874 6.66431979 10 8 C10.99 8.66 11.98 9.32 13 10 C12.67 10.66 12.34 11.32 12 12 C10.37133456 10.56665422 8.74719006 9.12817021 7.125 7.6875 C6.22007812 6.88699219 5.31515625 6.08648437 4.3828125 5.26171875 C2 3 2 3 0 0 Z " fill="#E63E41" transform="translate(222,201)"/>
<path d="M0 0 C0.66 0.33 1.32 0.66 2 1 C1.05065487 2.67180274 0.09026687 4.33733936 -0.875 6 C-1.40867188 6.928125 -1.94234375 7.85625 -2.4921875 8.8125 C-2.98976562 9.534375 -3.48734375 10.25625 -4 11 C-4.66 11 -5.32 11 -6 11 C-6.33 11.99 -6.66 12.98 -7 14 C-6.43584703 8.07639384 -4.18653966 4.18653966 0 0 Z " fill="#E93C40" transform="translate(221,168)"/>
<path d="M0 0 C2.09749995 2.35968744 2.96905704 3.54616994 3.1875 6.75 C3.125625 7.4925 3.06375 8.235 3 9 C2.01 9 1.02 9 0 9 C-0.66 7.02 -1.32 5.04 -2 3 C-1.34 3 -0.68 3 0 3 C0 2.01 0 1.02 0 0 Z " fill="#EF3538" transform="translate(284,174)"/>
<path d="M0 0 C0.66 0 1.32 0 2 0 C2 0.66 2 1.32 2 2 C3.98 2.66 5.96 3.32 8 4 C7.34 5.32 6.68 6.64 6 8 C4.9970458 6.85675161 3.99770973 5.71032809 3 4.5625 C2.443125 3.92441406 1.88625 3.28632813 1.3125 2.62890625 C0 1 0 1 0 0 Z " fill="#E83E3E" transform="translate(215,193)"/>
<path d="M0 0 C2.46800047 1.15173355 4.04783565 2.04783565 6 4 C8.57061311 4.64767793 8.57061311 4.64767793 11 5 C10.01 6.485 10.01 6.485 9 8 C4.7257442 6.4169423 2.73468206 3.49431596 0 0 Z " fill="#D54345" transform="translate(243,221)"/>
<path d="M0 0 C2.64 0.33 5.28 0.66 8 1 C8 1.99 8 2.98 8 4 C7.01 4.495 7.01 4.495 6 5 C1.29508197 2.59016393 1.29508197 2.59016393 0 0 Z " fill="#F53538" transform="translate(239,217)"/>
</svg>
